<?xml version="1.0" encoding="utf-8"?>
<!-- Generator: Adobe Illustrator 27.1.1, SVG Export Plug-In . SVG Version: 6.00 Build 0)  -->
<svg version="1.1" id="Layer_1" xmlns="http://www.w3.org/2000/svg" xmlns:xlink="http://www.w3.org/1999/xlink" x="0px" y="0px"
	 viewBox="0 0 232.9 54.2" style="enable-background:new 0 0 232.9 54.2;" xml:space="preserve">
<style type="text/css">
	.st0{fill:#34C687;}
	.st1{fill:#0EA3D8;}
	.st2{fill:#FAB627;}
</style>
<g>
	<path class="st0" d="M25.7,40.1h0.1c8.5-4.4,14.9-12,17.7-21.2l0.4-1.2L11.5,34.6l-5,2.6v5.5l13.4,6.9v-7.1c0-4,2.2-7.6,5.8-9.4
		V40.1z"/>
	<path class="st1" d="M39.8,17v-5.5L26.3,4.6v7.1c0,4-2.2,7.6-5.8,9.4v-7.1h-0.1c-8.5,4.4-14.9,12-17.7,21.2l-0.4,1.2l32.3-16.9
		L39.8,17z"/>
</g>
<g>
	<path class="st1" d="M71.7,24.5h-9.5v-7.6h-5.7v20.4h5.7v-7.7h9.5v7.7h5.7V16.9h-5.7V24.5z"/>
	<path class="st1" d="M80.8,16.9h-1.6v20.4h1.6H85h12.4v-5.1H85v-2.6h11.9v-5.1H85V22h12.4v-5.2H85H80.8z"/>
	<path class="st1" d="M107.7,16.9l-8.8,20.4h6.4l1.6-3.8h9.7l1.6,3.8h6.6l-8.8-20.4H107.7z M109,28.4l1.2-2.9l1.3-3.4h0.4l1.3,3.4
		l1.2,2.9H109z"/>
	<path class="st1" d="M134,16.9h-5.7H121V22h7.2v15.2h5.7V22h7.2v-5.2H134z"/>
	<path class="st0" d="M156.8,31.4c-0.7,0.5-1.8,0.8-3.5,0.8c-1.4,0-2.4-0.1-3.2-0.4s-1.3-0.8-1.6-1.5s-0.5-1.8-0.5-3.1
		c0-1.3,0.2-2.4,0.5-3.1c0.3-0.7,0.8-1.2,1.6-1.5c0.8-0.3,1.8-0.4,3.2-0.4c1.7,0,2.8,0.2,3.5,0.7c0.5,0.4,0.8,0.9,0.9,1.7h6.4
		c-0.1-1.5-0.5-2.8-1.3-3.9c-0.9-1.3-2.1-2.3-3.8-3c-1.6-0.7-3.6-1-5.9-1c-2.3,0-4.4,0.4-6.1,1.3c-1.7,0.9-3,2.1-3.9,3.7
		c-0.9,1.6-1.3,3.4-1.3,5.6s0.4,4,1.3,5.6c0.9,1.6,2.2,2.8,3.9,3.7c1.7,0.9,3.7,1.3,6.1,1.3c2.3,0,4.2-0.3,5.9-1
		c1.6-0.7,2.9-1.7,3.8-3c0.8-1.2,1.2-2.5,1.3-4.1h-6.4C157.7,30.3,157.4,30.9,156.8,31.4z"/>
	<path class="st0" d="M183.3,17.9c-1.7-0.9-3.8-1.3-6.2-1.3c-2.4,0-4.4,0.4-6.1,1.3c-1.7,0.9-3,2.1-3.9,3.7
		c-0.9,1.6-1.3,3.4-1.3,5.6s0.4,4,1.3,5.6c0.9,1.6,2.2,2.8,3.9,3.7c1.7,0.9,3.7,1.3,6.1,1.3c2.4,0,4.5-0.4,6.2-1.3
		c1.7-0.9,3-2.1,3.9-3.7c0.9-1.6,1.3-3.4,1.3-5.6s-0.4-4-1.3-5.6C186.3,20,185,18.7,183.3,17.9z M182,30.2c-0.3,0.7-0.9,1.2-1.6,1.5
		c-0.8,0.3-1.8,0.4-3.2,0.4c-1.4,0-2.4-0.1-3.2-0.4c-0.8-0.3-1.3-0.8-1.6-1.5c-0.3-0.7-0.4-1.8-0.4-3.1c0-1.3,0.2-2.4,0.4-3.1
		c0.3-0.7,0.8-1.2,1.6-1.5c0.8-0.3,1.8-0.4,3.2-0.4c1.4,0,2.5,0.1,3.2,0.4c0.8,0.3,1.3,0.8,1.6,1.5c0.3,0.7,0.5,1.8,0.5,3.1
		C182.4,28.4,182.3,29.5,182,30.2z"/>
	<path class="st0" d="M207,30.2c-0.5-0.5-1.2-0.9-2.3-1.2v-0.3c1.3-0.2,2.3-0.5,3.2-1c0.8-0.5,1.4-1.1,1.8-1.9
		c0.4-0.8,0.6-1.7,0.6-2.8c0-1.3-0.3-2.5-0.9-3.4c-0.6-0.9-1.5-1.6-2.8-2.1c-1.2-0.5-2.7-0.7-4.5-0.7h-11.9v20.4h5.7v-6.9h2.3
		c0.8,0,1.3,0.1,1.8,0.2s0.8,0.3,1,0.6c0.3,0.3,0.5,0.7,0.8,1.2l2.4,5h6.6l-2.5-5.1C207.9,31.4,207.5,30.8,207,30.2L207,30.2z
		 M203.7,25.7c-0.3,0.2-0.9,0.4-1.8,0.4h-6.1V22h6.1c0.8,0,1.4,0.1,1.8,0.4c0.3,0.3,0.5,0.8,0.5,1.6C204.2,24.9,204,25.5,203.7,25.7
		z"/>
	<path class="st0" d="M230.2,22v-5.2h-12.4h-4.2h-1.6v20.4h1.6h4.2h12.4v-5.1h-12.4v-2.6h11.9v-5.1h-11.9V22H230.2z"/>
</g>
<g>
	<path class="st2" d="M145,78.6c0.4-1.5,0.9-2.9,1.3-4.3c0,0,0,0,0,0c-1.7,2-3.5,4.1-5.2,6.1h2.2c-0.4,1.5-0.9,2.9-1.3,4.3
		c0,0,0,0,0,0c1.7-2,3.5-4.1,5.2-6.1H145z"/>
	<path class="st0" d="M54.5,82.7h3.1v-0.6h-2.4v-2h2.1v-0.5h-2.1v-1.9h2.4v-0.6h-3.1V82.7z"/>
	<path class="st0" d="M63.9,78.2c-0.4,0-0.7,0.1-1,0.3c-0.3,0.2-0.5,0.5-0.6,0.8c-0.1-0.4-0.3-0.6-0.6-0.8c-0.3-0.2-0.6-0.3-1-0.3
		c-0.4,0-0.7,0.1-0.9,0.3c-0.3,0.2-0.5,0.5-0.6,0.8v-1h-0.7v4.4h0.7v-2.3c0-0.5,0.1-0.9,0.3-1.1c0.2-0.2,0.5-0.4,0.9-0.4
		c0.4,0,0.6,0.1,0.9,0.3c0.2,0.2,0.3,0.6,0.3,1v2.5h0.7v-2.3c0-0.5,0.1-0.9,0.3-1.1c0.2-0.2,0.5-0.4,0.9-0.4c0.4,0,0.7,0.1,0.9,0.3
		c0.2,0.2,0.3,0.6,0.3,1v2.5h0.7v-2.5c0-0.6-0.2-1.1-0.5-1.4C64.8,78.4,64.4,78.2,63.9,78.2L63.9,78.2z"/>
	<path class="st0" d="M70.2,78.5c-0.3-0.2-0.6-0.3-1-0.3c-0.4,0-0.8,0.1-1.1,0.3c-0.3,0.2-0.5,0.5-0.6,0.8v-1.1h-0.7v6.4h0.7v-3.2
		c0.1,0.4,0.3,0.6,0.6,0.8c0.3,0.2,0.7,0.3,1.1,0.3c0.4,0,0.7-0.1,1-0.3c0.3-0.2,0.5-0.4,0.7-0.8s0.3-0.7,0.3-1.2
		c0-0.5-0.1-0.8-0.3-1.2C70.7,79,70.5,78.7,70.2,78.5L70.2,78.5z M70,81.7c-0.3,0.3-0.6,0.4-1.1,0.4c-0.3,0-0.5-0.1-0.8-0.2
		c-0.2-0.1-0.4-0.3-0.5-0.6c-0.1-0.2-0.2-0.5-0.2-0.8c0-0.3,0.1-0.6,0.2-0.8c0.1-0.2,0.3-0.4,0.5-0.6c0.2-0.1,0.5-0.2,0.8-0.2
		c0.5,0,0.8,0.2,1.1,0.4c0.3,0.3,0.4,0.7,0.4,1.2C70.4,81,70.3,81.4,70,81.7L70,81.7z"/>
	<path class="st0" d="M75.2,78.5c-0.3-0.2-0.7-0.3-1.1-0.3s-0.8,0.1-1.1,0.3c-0.3,0.2-0.6,0.4-0.8,0.8c-0.2,0.3-0.3,0.7-0.3,1.2
		c0,0.5,0.1,0.8,0.3,1.2c0.2,0.3,0.5,0.6,0.8,0.8c0.3,0.2,0.7,0.3,1.1,0.3c0.4,0,0.8-0.1,1.1-0.3c0.3-0.2,0.6-0.4,0.8-0.8
		c0.2-0.3,0.3-0.7,0.3-1.2c0-0.5-0.1-0.8-0.3-1.2C75.8,78.9,75.5,78.7,75.2,78.5z M75.3,81.4c-0.1,0.2-0.3,0.4-0.5,0.5
		c-0.2,0.1-0.5,0.2-0.7,0.2s-0.5-0.1-0.7-0.2c-0.2-0.1-0.4-0.3-0.5-0.5c-0.1-0.2-0.2-0.5-0.2-0.9c0-0.3,0.1-0.7,0.2-0.9
		c0.1-0.2,0.3-0.4,0.5-0.5c0.2-0.1,0.5-0.2,0.7-0.2s0.5,0.1,0.7,0.2c0.2,0.1,0.4,0.3,0.5,0.5c0.1,0.2,0.2,0.5,0.2,0.9
		S75.5,81.1,75.3,81.4z"/>
	<path class="st0" d="M81.6,82l-1.2-3.7h-0.8L78.4,82l-0.9-3.7h-0.7l1.2,4.4h0.8l1.2-3.5l1.2,3.5H82l1.2-4.4h-0.7L81.6,82z"/>
	<path class="st0" d="M87,78.5c-0.3-0.2-0.7-0.3-1.1-0.3c-0.4,0-0.8,0.1-1.1,0.3c-0.3,0.2-0.6,0.4-0.8,0.8c-0.2,0.3-0.3,0.7-0.3,1.2
		c0,0.5,0.1,0.8,0.3,1.2c0.2,0.3,0.4,0.6,0.8,0.8c0.3,0.2,0.7,0.3,1.1,0.3c0.4,0,0.7-0.1,1-0.2c0.3-0.1,0.5-0.3,0.7-0.6
		c0.2-0.2,0.3-0.5,0.4-0.8h-0.8c-0.1,0.3-0.2,0.5-0.4,0.7c-0.2,0.2-0.5,0.3-0.9,0.3c-0.4,0-0.7-0.1-1-0.4s-0.4-0.6-0.4-1.1h3.5
		c0-0.1,0-0.2,0-0.4c0-0.4-0.1-0.7-0.2-1C87.5,78.9,87.3,78.6,87,78.5L87,78.5z M84.4,80.3c0-0.5,0.2-0.8,0.4-1.1
		c0.3-0.2,0.6-0.4,1-0.4c0.2,0,0.5,0.1,0.7,0.2c0.2,0.1,0.4,0.3,0.5,0.5c0.1,0.2,0.2,0.5,0.2,0.8L84.4,80.3L84.4,80.3z"/>
	<path class="st0" d="M89.6,79.2v-0.9h-0.7v4.4h0.7v-2.3c0-0.5,0.1-0.8,0.4-1c0.3-0.2,0.6-0.3,1-0.3h0.2v-0.8c-0.4,0-0.7,0.1-1,0.2
		C90,78.6,89.7,78.9,89.6,79.2L89.6,79.2z"/>
	<path class="st0" d="M92.3,76.6c-0.2,0-0.3,0-0.4,0.1c-0.1,0.1-0.1,0.2-0.1,0.3c0,0.1,0,0.2,0.1,0.3c0.1,0.1,0.2,0.1,0.4,0.1
		c0.2,0,0.3,0,0.4-0.1c0.1-0.1,0.1-0.2,0.1-0.3c0-0.1,0-0.2-0.1-0.3C92.6,76.6,92.4,76.6,92.3,76.6z"/>
	<path class="st0" d="M92.7,78.3h-0.7v4.4h0.7V78.3z"/>
	<path class="st0" d="M96.1,78.2c-0.4,0-0.7,0.1-1,0.3c-0.3,0.2-0.5,0.5-0.6,0.8v-1h-0.7v4.4h0.7v-2.3c0-0.5,0.1-0.9,0.4-1.1
		s0.6-0.4,1-0.4c0.4,0,0.7,0.1,0.9,0.4c0.2,0.2,0.3,0.6,0.3,1v2.5h0.7v-2.5c0-0.6-0.2-1.1-0.5-1.4C97,78.4,96.6,78.2,96.1,78.2
		L96.1,78.2z"/>
	<path class="st0" d="M102.4,79.4c-0.1-0.4-0.3-0.6-0.6-0.8c-0.3-0.2-0.7-0.3-1.1-0.3c-0.4,0-0.7,0.1-1,0.3
		c-0.3,0.2-0.5,0.4-0.7,0.8c-0.2,0.3-0.3,0.7-0.3,1.2c0,0.5,0.1,0.8,0.3,1.2c0.2,0.3,0.4,0.6,0.7,0.8c0.3,0.2,0.6,0.3,1,0.3
		c0.4,0,0.8-0.1,1.1-0.3c0.3-0.2,0.5-0.5,0.6-0.8v1.2c0,0.5-0.1,0.8-0.4,1.1c-0.3,0.2-0.6,0.4-1,0.4c-0.4,0-0.7-0.1-0.9-0.2
		c-0.2-0.2-0.4-0.4-0.5-0.7H99c0.1,0.5,0.3,0.9,0.7,1.2c0.4,0.3,0.8,0.4,1.4,0.4c0.4,0,0.8-0.1,1.1-0.3c0.3-0.2,0.5-0.4,0.7-0.7
		c0.2-0.3,0.3-0.7,0.3-1.1v-4.5h-0.7L102.4,79.4L102.4,79.4z M102.2,81.3c-0.1,0.2-0.3,0.4-0.5,0.6c-0.2,0.1-0.5,0.2-0.8,0.2
		c-0.5,0-0.8-0.2-1.1-0.4c-0.3-0.3-0.4-0.7-0.4-1.2c0-0.5,0.1-0.9,0.4-1.2c0.3-0.3,0.6-0.4,1.1-0.4c0.3,0,0.5,0.1,0.8,0.2
		c0.2,0.1,0.4,0.3,0.5,0.6c0.1,0.2,0.2,0.5,0.2,0.8C102.4,80.8,102.4,81.1,102.2,81.3L102.2,81.3z"/>
	<path class="st0" d="M107.8,77.9c0.3-0.2,0.6-0.3,1-0.3c0.5,0,0.8,0.1,1.2,0.3c0.3,0.2,0.5,0.5,0.7,0.9h0.8c-0.2-0.6-0.5-1-0.9-1.4
		c-0.5-0.3-1-0.5-1.7-0.5c-0.5,0-1,0.1-1.4,0.4c-0.4,0.2-0.7,0.6-0.9,1c-0.2,0.4-0.3,0.9-0.3,1.5s0.1,1,0.3,1.5
		c0.2,0.4,0.5,0.8,0.9,1c0.4,0.2,0.9,0.4,1.4,0.4c0.7,0,1.2-0.2,1.7-0.5c0.5-0.3,0.8-0.8,0.9-1.4h-0.8c-0.2,0.4-0.4,0.7-0.7,0.9
		c-0.3,0.2-0.7,0.3-1.2,0.3c-0.4,0-0.7-0.1-1-0.3c-0.3-0.2-0.5-0.4-0.7-0.8c-0.2-0.3-0.2-0.7-0.2-1.2c0-0.4,0.1-0.8,0.2-1.2
		S107.5,78.1,107.8,77.9L107.8,77.9z"/>
	<path class="st0" d="M115.5,78.5c-0.3-0.2-0.7-0.3-1.1-0.3s-0.8,0.1-1.1,0.3c-0.3,0.2-0.6,0.4-0.8,0.8c-0.2,0.3-0.3,0.7-0.3,1.2
		c0,0.5,0.1,0.8,0.3,1.2c0.2,0.3,0.5,0.6,0.8,0.8c0.3,0.2,0.7,0.3,1.1,0.3c0.4,0,0.8-0.1,1.1-0.3c0.3-0.2,0.6-0.4,0.8-0.8
		c0.2-0.3,0.3-0.7,0.3-1.2c0-0.5-0.1-0.8-0.3-1.2C116,78.9,115.8,78.7,115.5,78.5z M115.6,81.4c-0.1,0.2-0.3,0.4-0.5,0.5
		c-0.2,0.1-0.5,0.2-0.7,0.2s-0.5-0.1-0.7-0.2c-0.2-0.1-0.4-0.3-0.5-0.5c-0.1-0.2-0.2-0.5-0.2-0.9c0-0.3,0.1-0.7,0.2-0.9
		c0.1-0.2,0.3-0.4,0.5-0.5c0.2-0.1,0.5-0.2,0.7-0.2s0.5,0.1,0.7,0.2c0.2,0.1,0.4,0.3,0.5,0.5c0.1,0.2,0.2,0.5,0.2,0.9
		S115.7,81.1,115.6,81.4z"/>
	<path class="st0" d="M122.8,78.2c-0.4,0-0.7,0.1-1,0.3c-0.3,0.2-0.5,0.5-0.6,0.8c-0.1-0.4-0.3-0.6-0.6-0.8c-0.3-0.2-0.6-0.3-1-0.3
		s-0.7,0.1-0.9,0.3c-0.3,0.2-0.5,0.5-0.6,0.8v-1h-0.7v4.4h0.7v-2.3c0-0.5,0.1-0.9,0.3-1.1c0.2-0.2,0.5-0.4,0.9-0.4
		c0.4,0,0.6,0.1,0.9,0.3c0.2,0.2,0.3,0.6,0.3,1v2.5h0.7v-2.3c0-0.5,0.1-0.9,0.3-1.1c0.2-0.2,0.5-0.4,0.9-0.4c0.4,0,0.7,0.1,0.9,0.3
		c0.2,0.2,0.3,0.6,0.3,1v2.5h0.7v-2.5c0-0.6-0.2-1.1-0.5-1.4C123.8,78.4,123.3,78.2,122.8,78.2L122.8,78.2z"/>
	<path class="st0" d="M125.8,78.1v0.2h-0.6v0.6h0.6v3.7h0.7v-3.7h1v-0.6h-1v-0.1c0-0.3,0.1-0.6,0.2-0.7c0.2-0.1,0.4-0.2,0.8-0.2
		v-0.6C126.4,76.5,125.8,77.1,125.8,78.1L125.8,78.1z"/>
	<path class="st0" d="M131.5,78.5c-0.3-0.2-0.7-0.3-1.1-0.3c-0.4,0-0.8,0.1-1.1,0.3c-0.3,0.2-0.6,0.4-0.8,0.8
		c-0.2,0.3-0.3,0.7-0.3,1.2c0,0.5,0.1,0.8,0.3,1.2c0.2,0.3,0.5,0.6,0.8,0.8c0.3,0.2,0.7,0.3,1.1,0.3s0.8-0.1,1.1-0.3
		c0.3-0.2,0.6-0.4,0.8-0.8c0.2-0.3,0.3-0.7,0.3-1.2c0-0.5-0.1-0.8-0.3-1.2C132.1,78.9,131.8,78.7,131.5,78.5z M131.6,81.4
		c-0.1,0.2-0.3,0.4-0.5,0.5c-0.2,0.1-0.5,0.2-0.7,0.2c-0.3,0-0.5-0.1-0.7-0.2c-0.2-0.1-0.4-0.3-0.5-0.5c-0.1-0.2-0.2-0.5-0.2-0.9
		c0-0.3,0.1-0.7,0.2-0.9s0.3-0.4,0.5-0.5c0.2-0.1,0.5-0.2,0.7-0.2c0.3,0,0.5,0.1,0.7,0.2c0.2,0.1,0.4,0.3,0.5,0.5
		c0.1,0.2,0.2,0.5,0.2,0.9S131.8,81.1,131.6,81.4z"/>
	<path class="st0" d="M134.2,79.2v-0.9h-0.7v4.4h0.7v-2.3c0-0.5,0.1-0.8,0.4-1c0.3-0.2,0.6-0.3,1-0.3h0.2v-0.8c-0.4,0-0.7,0.1-1,0.2
		C134.6,78.6,134.4,78.9,134.2,79.2L134.2,79.2z"/>
	<path class="st0" d="M137.7,81.9c-0.1-0.1-0.2-0.3-0.2-0.6v-2.4h1.1v-0.6h-1.1v-1.1h-0.7v1.1h-0.7v0.6h0.7v2.4
		c0,0.5,0.1,0.8,0.3,1.1c0.2,0.2,0.5,0.3,1,0.3h0.5V82h-0.5C137.9,82,137.8,82,137.7,81.9z"/>
	<path class="st1" d="M152.1,79.9c-0.2-0.1-0.5-0.2-0.9-0.3c-0.3-0.1-0.5-0.2-0.7-0.3c-0.2-0.1-0.3-0.2-0.4-0.3
		c-0.1-0.1-0.2-0.3-0.2-0.5c0-0.3,0.1-0.5,0.3-0.6c0.2-0.2,0.4-0.2,0.7-0.2c0.3,0,0.6,0.1,0.8,0.3c0.2,0.2,0.3,0.4,0.3,0.6h0.8
		c-0.1-0.4-0.2-0.8-0.6-1s-0.8-0.4-1.3-0.4c-0.4,0-0.7,0.1-0.9,0.2c-0.3,0.1-0.5,0.3-0.6,0.5c-0.1,0.2-0.2,0.5-0.2,0.8
		c0,0.3,0.1,0.6,0.2,0.8c0.2,0.2,0.3,0.4,0.5,0.5c0.2,0.1,0.5,0.2,0.8,0.3c0.3,0.1,0.5,0.2,0.7,0.3c0.2,0.1,0.3,0.2,0.4,0.3
		c0.1,0.2,0.2,0.3,0.2,0.6c0,0.3-0.1,0.5-0.3,0.7s-0.4,0.3-0.7,0.3c-0.2,0-0.5-0.1-0.6-0.2c-0.2-0.1-0.3-0.2-0.4-0.4
		c-0.1-0.2-0.2-0.3-0.2-0.5h-0.8c0,0.3,0.1,0.6,0.3,0.8s0.4,0.4,0.7,0.6c0.3,0.1,0.6,0.2,1,0.2s0.7-0.1,1-0.2
		c0.3-0.2,0.5-0.3,0.6-0.6c0.1-0.2,0.2-0.5,0.2-0.7c0-0.4-0.1-0.6-0.2-0.8C152.5,80.2,152.3,80,152.1,79.9L152.1,79.9z"/>
	<path class="st1" d="M157.4,79.4c-0.1-0.4-0.3-0.6-0.6-0.8c-0.3-0.2-0.7-0.3-1.1-0.3c-0.4,0-0.7,0.1-1,0.3
		c-0.3,0.2-0.5,0.4-0.7,0.8c-0.2,0.3-0.3,0.7-0.3,1.2c0,0.5,0.1,0.8,0.3,1.2c0.2,0.3,0.4,0.6,0.7,0.8c0.3,0.2,0.6,0.3,1,0.3
		c0.4,0,0.8-0.1,1.1-0.3c0.3-0.2,0.5-0.5,0.6-0.8v1.1h0.7v-4.4h-0.7V79.4L157.4,79.4z M157.2,81.3c-0.1,0.2-0.3,0.4-0.5,0.6
		c-0.2,0.1-0.5,0.2-0.8,0.2c-0.5,0-0.8-0.2-1.1-0.4c-0.3-0.3-0.4-0.7-0.4-1.2c0-0.5,0.1-0.9,0.4-1.2c0.3-0.3,0.6-0.4,1.1-0.4
		c0.3,0,0.5,0.1,0.8,0.2c0.2,0.1,0.4,0.3,0.5,0.6c0.1,0.2,0.2,0.5,0.2,0.8C157.4,80.8,157.3,81.1,157.2,81.3L157.2,81.3z"/>
	<path class="st1" d="M161,81.9l-1.4-3.6h-0.8l1.7,4.4h0.9l1.7-4.4h-0.8L161,81.9z"/>
	<path class="st1" d="M164.2,76.6c-0.2,0-0.3,0-0.4,0.1c-0.1,0.1-0.1,0.2-0.1,0.3c0,0.1,0,0.2,0.1,0.3c0.1,0.1,0.2,0.1,0.4,0.1
		c0.2,0,0.3,0,0.4-0.1c0.1-0.1,0.1-0.2,0.1-0.3c0-0.1,0-0.2-0.1-0.3C164.4,76.6,164.3,76.6,164.2,76.6z"/>
	<path class="st1" d="M164.5,78.3h-0.7v4.4h0.7V78.3z"/>
	<path class="st1" d="M168,78.2c-0.4,0-0.7,0.1-1,0.3c-0.3,0.2-0.5,0.5-0.6,0.8v-1h-0.7v4.4h0.7v-2.3c0-0.5,0.1-0.9,0.4-1.1
		c0.2-0.3,0.6-0.4,1-0.4c0.4,0,0.7,0.1,0.9,0.4c0.2,0.2,0.3,0.6,0.3,1v2.5h0.7v-2.5c0-0.6-0.2-1.1-0.5-1.4
		C168.9,78.4,168.5,78.2,168,78.2L168,78.2z"/>
	<path class="st1" d="M174.3,79.4c-0.1-0.4-0.3-0.6-0.6-0.8c-0.3-0.2-0.7-0.3-1.1-0.3c-0.4,0-0.7,0.1-1,0.3
		c-0.3,0.2-0.5,0.4-0.7,0.8c-0.2,0.3-0.3,0.7-0.3,1.2c0,0.5,0.1,0.8,0.3,1.2c0.2,0.3,0.4,0.6,0.7,0.8c0.3,0.2,0.6,0.3,1,0.3
		c0.4,0,0.8-0.1,1.1-0.3c0.3-0.2,0.5-0.5,0.6-0.8v1.2c0,0.5-0.1,0.8-0.4,1.1c-0.3,0.2-0.6,0.4-1,0.4c-0.4,0-0.7-0.1-0.9-0.2
		c-0.2-0.2-0.4-0.4-0.5-0.7h-0.7c0.1,0.5,0.3,0.9,0.7,1.2c0.4,0.3,0.8,0.4,1.4,0.4c0.4,0,0.8-0.1,1.1-0.3c0.3-0.2,0.5-0.4,0.7-0.7
		c0.2-0.3,0.3-0.7,0.3-1.1v-4.5h-0.7L174.3,79.4L174.3,79.4z M174.1,81.3c-0.1,0.2-0.3,0.4-0.5,0.6c-0.2,0.1-0.5,0.2-0.8,0.2
		c-0.5,0-0.8-0.2-1.1-0.4c-0.3-0.3-0.4-0.7-0.4-1.2c0-0.5,0.1-0.9,0.4-1.2c0.3-0.3,0.6-0.4,1.1-0.4c0.3,0,0.5,0.1,0.8,0.2
		c0.2,0.1,0.4,0.3,0.5,0.6c0.1,0.2,0.2,0.5,0.2,0.8C174.3,80.8,174.2,81.1,174.1,81.3L174.1,81.3z"/>
	<path class="st1" d="M178.1,82.7h3.1v-0.6h-2.4v-2h2.1v-0.5h-2.1v-1.9h2.4v-0.6h-3.1V82.7z"/>
	<path class="st1" d="M184.5,78.2c-0.4,0-0.7,0.1-1,0.3c-0.3,0.2-0.5,0.5-0.6,0.8v-1h-0.7v4.4h0.7v-2.3c0-0.5,0.1-0.9,0.4-1.1
		s0.6-0.4,1-0.4s0.7,0.1,0.9,0.4c0.2,0.2,0.3,0.6,0.3,1v2.5h0.7v-2.5c0-0.6-0.2-1.1-0.5-1.4C185.4,78.4,185,78.2,184.5,78.2
		L184.5,78.2z"/>
	<path class="st1" d="M190.3,78.5c-0.3-0.2-0.7-0.3-1.1-0.3c-0.4,0-0.8,0.1-1.1,0.3c-0.3,0.2-0.6,0.4-0.8,0.8
		c-0.2,0.3-0.3,0.7-0.3,1.2c0,0.5,0.1,0.8,0.3,1.2c0.2,0.3,0.4,0.6,0.8,0.8c0.3,0.2,0.7,0.3,1.1,0.3c0.4,0,0.7-0.1,1-0.2
		c0.3-0.1,0.5-0.3,0.7-0.6c0.2-0.2,0.3-0.5,0.4-0.8h-0.8c-0.1,0.3-0.2,0.5-0.4,0.7c-0.2,0.2-0.5,0.3-0.9,0.3c-0.4,0-0.7-0.1-1-0.4
		c-0.3-0.2-0.4-0.6-0.4-1.1h3.5c0-0.1,0-0.2,0-0.4c0-0.4-0.1-0.7-0.2-1C190.9,78.9,190.6,78.6,190.3,78.5L190.3,78.5z M187.8,80.3
		c0-0.5,0.2-0.8,0.4-1.1c0.3-0.2,0.6-0.4,1-0.4c0.2,0,0.5,0.1,0.7,0.2c0.2,0.1,0.4,0.3,0.5,0.5c0.1,0.2,0.2,0.5,0.2,0.8L187.8,80.3
		L187.8,80.3z"/>
	<path class="st1" d="M193,79.2v-0.9h-0.7v4.4h0.7v-2.3c0-0.5,0.1-0.8,0.4-1c0.3-0.2,0.6-0.3,1-0.3h0.2v-0.8c-0.4,0-0.7,0.1-1,0.2
		C193.3,78.6,193.1,78.9,193,79.2L193,79.2z"/>
	<path class="st1" d="M198.8,79.4c-0.1-0.4-0.3-0.6-0.6-0.8c-0.3-0.2-0.7-0.3-1.1-0.3c-0.4,0-0.7,0.1-1,0.3
		c-0.3,0.2-0.5,0.4-0.7,0.8c-0.2,0.3-0.3,0.7-0.3,1.2c0,0.5,0.1,0.8,0.3,1.2c0.2,0.3,0.4,0.6,0.7,0.8c0.3,0.2,0.6,0.3,1,0.3
		c0.4,0,0.8-0.1,1.1-0.3c0.3-0.2,0.5-0.5,0.6-0.8v1.2c0,0.5-0.1,0.8-0.4,1.1c-0.3,0.2-0.6,0.4-1,0.4c-0.4,0-0.7-0.1-0.9-0.2
		c-0.2-0.2-0.4-0.4-0.5-0.7h-0.7c0.1,0.5,0.3,0.9,0.7,1.2c0.4,0.3,0.8,0.4,1.4,0.4c0.4,0,0.8-0.1,1.1-0.3c0.3-0.2,0.5-0.4,0.7-0.7
		s0.3-0.7,0.3-1.1v-4.5h-0.7L198.8,79.4L198.8,79.4z M198.6,81.3c-0.1,0.2-0.3,0.4-0.5,0.6c-0.2,0.1-0.5,0.2-0.8,0.2
		c-0.5,0-0.8-0.2-1.1-0.4c-0.3-0.3-0.4-0.7-0.4-1.2c0-0.5,0.1-0.9,0.4-1.2c0.3-0.3,0.6-0.4,1.1-0.4c0.3,0,0.5,0.1,0.8,0.2
		c0.2,0.1,0.4,0.3,0.5,0.6c0.1,0.2,0.2,0.5,0.2,0.8C198.8,80.8,198.7,81.1,198.6,81.3L198.6,81.3z"/>
	<path class="st1" d="M203.7,78.3l-1.3,3.4l-1.4-3.4h-0.8l1.8,4.3l-0.9,2.1h0.8l2.6-6.4H203.7z"/>
</g>
</svg>
